<svg width="23" height="32" viewBox="0 0 27 32" fill="none" xmlns="http://www.w3.org/2000/svg">
<path d="M12.02 28.53C9.68999 28.53 7.35999 28.16 5.14999 27.42C4.30999 27.13 3.66999 26.54 3.38999 25.77C3.09999 25 3.19999 24.15 3.65999 23.39L4.80999 21.48C5.04999 21.08 5.26999 20.28 5.26999 19.81V16.92C5.26999 13.2 8.29999 10.17 12.02 10.17C15.74 10.17 18.77 13.2 18.77 16.92V19.81C18.77 20.27 18.99 21.08 19.23 21.49L20.37 23.39C20.8 24.11 20.88 24.98 20.59 25.77C20.3 26.56 19.67 27.16 18.88 27.42C16.68 28.16 14.35 28.53 12.02 28.53ZM12.02 11.67C9.12999 11.67 6.76999 14.02 6.76999 16.92V19.81C6.76999 20.54 6.46999 21.62 6.09999 22.25L4.94999 24.16C4.72999 24.53 4.66999 24.92 4.79999 25.25C4.91999 25.59 5.21999 25.85 5.62999 25.99C9.80999 27.39 14.24 27.39 18.42 25.99C18.78 25.87 19.06 25.6 19.19 25.24C19.32 24.88 19.29 24.49 19.09 24.16L17.94 22.25C17.56 21.6 17.27 20.53 17.27 19.8V16.92C17.27 14.02 14.92 11.67 12.02 11.67Z" fill="#8D9091"/>
<path d="M13.88 11.94C13.81 11.94 13.74 11.93 13.67 11.91C13.38 11.83 13.1 11.77 12.83 11.73C11.98 11.62 11.16 11.68 10.39 11.91C10.11 12 9.80999 11.91 9.61999 11.7C9.42999 11.49 9.36999 11.19 9.47999 10.92C9.88999 9.86999 10.89 9.17999 12.03 9.17999C13.17 9.17999 14.17 9.85999 14.58 10.92C14.68 11.19 14.63 11.49 14.44 11.7C14.29 11.86 14.08 11.94 13.88 11.94Z" fill="#8D9091"/>
<path d="M12.02 30.81C11.03 30.81 10.07 30.41 9.37002 29.71C8.67002 29.01 8.27002 28.05 8.27002 27.06H9.77002C9.77002 27.65 10.01 28.23 10.43 28.65C10.85 29.07 11.43 29.31 12.02 29.31C13.26 29.31 14.27 28.3 14.27 27.06H15.77C15.77 29.13 14.09 30.81 12.02 30.81Z" fill="#8D9091"/>
<rect x="11" y="1" width="15" height="15" rx="7.5" fill="#3A5743"/>
<rect x="11" y="1" width="15" height="15" rx="7.5" stroke="white" stroke-width="2"/>
<path d="M16.4 11.996L16.404 11.356L18.96 9.056C19.1733 8.864 19.316 8.68267 19.388 8.512C19.4627 8.33867 19.5 8.16133 19.5 7.98C19.5 7.75867 19.4493 7.55867 19.348 7.38C19.2467 7.20133 19.108 7.06 18.932 6.956C18.7587 6.852 18.5613 6.8 18.34 6.8C18.1107 6.8 17.9067 6.85467 17.728 6.964C17.5493 7.07067 17.408 7.21333 17.304 7.392C17.2027 7.57067 17.1533 7.76533 17.156 7.976H16.428C16.428 7.61333 16.512 7.29333 16.68 7.016C16.848 6.736 17.076 6.51733 17.364 6.36C17.6547 6.2 17.984 6.12 18.352 6.12C18.7093 6.12 19.0293 6.20267 19.312 6.368C19.5947 6.53067 19.8173 6.75333 19.98 7.036C20.1453 7.316 20.228 7.63333 20.228 7.988C20.228 8.23867 20.196 8.456 20.132 8.64C20.0707 8.824 19.9747 8.99467 19.844 9.152C19.7133 9.30667 19.5493 9.472 19.352 9.648L17.228 11.556L17.136 11.316H20.228V11.996H16.4Z" fill="white"/>
</svg>
