<svg width="95" height="32" viewBox="0 0 109 32" fill="none" xmlns="http://www.w3.org/2000/svg">
<rect width="32" height="32" rx="16" fill="#CCE1BF"/>
<path d="M16 16C17.841 16 19.3334 14.5076 19.3334 12.6667C19.3334 10.8257 17.841 9.33334 16 9.33334C14.1591 9.33334 12.6667 10.8257 12.6667 12.6667C12.6667 14.5076 14.1591 16 16 16Z" stroke="#3A5743" stroke-width="1.5" stroke-linecap="round" stroke-linejoin="round"/>
<path opacity="0.4" d="M21.7266 22.6667C21.7266 20.0867 19.16 18 16 18C12.84 18 10.2733 20.0867 10.2733 22.6667" stroke="#3A5743" stroke-width="1.5" stroke-linecap="round" stroke-linejoin="round"/>
<path d="M36.28 21.5L39.752 11.42H41.117L44.589 21.5H43.518L40.221 11.994H40.627L37.351 21.5H36.28ZM37.827 19.057V18.091H43.035V19.057H37.827ZM48.786 21.71C48.0814 21.71 47.4794 21.535 46.98 21.185C46.4807 20.8303 46.098 20.352 45.832 19.75C45.566 19.148 45.433 18.469 45.433 17.713C45.433 16.9617 45.5637 16.285 45.825 15.683C46.091 15.081 46.4714 14.605 46.966 14.255C47.4607 13.905 48.0534 13.73 48.744 13.73C49.4534 13.73 50.0507 13.9027 50.536 14.248C51.0214 14.5933 51.3877 15.067 51.635 15.669C51.887 16.2663 52.013 16.9477 52.013 17.713C52.013 18.4643 51.8894 19.1433 51.642 19.75C51.3947 20.352 51.0307 20.8303 50.55 21.185C50.0694 21.535 49.4814 21.71 48.786 21.71ZM48.891 20.751C49.4277 20.751 49.871 20.6203 50.221 20.359C50.571 20.0977 50.8324 19.7383 51.005 19.281C51.1777 18.819 51.264 18.2963 51.264 17.713C51.264 17.1203 51.1777 16.5977 51.005 16.145C50.8324 15.6877 50.571 15.3307 50.221 15.074C49.8757 14.8173 49.4394 14.689 48.912 14.689C48.3707 14.689 47.9227 14.822 47.568 15.088C47.2134 15.354 46.9497 15.7157 46.777 16.173C46.609 16.6303 46.525 17.1437 46.525 17.713C46.525 18.287 46.6114 18.805 46.784 19.267C46.9614 19.7243 47.225 20.086 47.575 20.352C47.925 20.618 48.3637 20.751 48.891 20.751ZM51.264 21.5V15.809H51.152V11.42H52.188V21.5H51.264ZM63.1679 21.5L63.1749 16.537C63.1749 15.9537 63.0115 15.4963 62.6849 15.165C62.3629 14.829 61.9522 14.661 61.4529 14.661C61.1682 14.661 60.8905 14.7263 60.6199 14.857C60.3492 14.9877 60.1252 15.1977 59.9479 15.487C59.7752 15.7763 59.6889 16.1543 59.6889 16.621L59.0799 16.446C59.0659 15.9047 59.1709 15.431 59.3949 15.025C59.6235 14.619 59.9362 14.304 60.3329 14.08C60.7342 13.8513 61.1869 13.737 61.6909 13.737C62.4515 13.737 63.0605 13.9727 63.5179 14.444C63.9752 14.9107 64.2039 15.543 64.2039 16.341L64.1969 21.5H63.1679ZM54.1449 21.5V13.94H55.0689V15.802H55.1809V21.5H54.1449ZM58.6669 21.5L58.6739 16.607C58.6739 16.005 58.5129 15.5313 58.1909 15.186C57.8735 14.836 57.4535 14.661 56.9309 14.661C56.4082 14.661 55.9859 14.8407 55.6639 15.2C55.3419 15.5547 55.1809 16.0283 55.1809 16.621L54.5649 16.285C54.5649 15.7997 54.6792 15.3657 54.9079 14.983C55.1365 14.5957 55.4492 14.2923 55.8459 14.073C56.2425 13.849 56.6929 13.737 57.1969 13.737C57.6775 13.737 58.1045 13.8397 58.4779 14.045C58.8559 14.2503 59.1522 14.549 59.3669 14.941C59.5815 15.333 59.6889 15.809 59.6889 16.369L59.6819 21.5H58.6669ZM66.1591 12.505V11.35H67.1881V12.505H66.1591ZM66.1591 21.5V13.94H67.1881V21.5H66.1591ZM74.7466 21.5V17.643C74.7466 17.223 74.707 16.838 74.6276 16.488C74.5483 16.1333 74.42 15.8253 74.2426 15.564C74.07 15.298 73.8436 15.0927 73.5636 14.948C73.2883 14.8033 72.9523 14.731 72.5556 14.731C72.1916 14.731 71.8696 14.794 71.5896 14.92C71.3143 15.046 71.081 15.228 70.8896 15.466C70.703 15.6993 70.5606 15.984 70.4626 16.32C70.3646 16.656 70.3156 17.0387 70.3156 17.468L69.5876 17.307C69.5876 16.5323 69.723 15.8813 69.9936 15.354C70.2643 14.8267 70.6376 14.4277 71.1136 14.157C71.5896 13.8863 72.1356 13.751 72.7516 13.751C73.2043 13.751 73.5986 13.821 73.9346 13.961C74.2753 14.101 74.5623 14.29 74.7956 14.528C75.0336 14.766 75.225 15.039 75.3696 15.347C75.5143 15.6503 75.6193 15.9747 75.6846 16.32C75.75 16.6607 75.7826 17.0013 75.7826 17.342V21.5H74.7466ZM69.2796 21.5V13.94H70.2106V15.802H70.3156V21.5H69.2796Z" fill="#5B5B5B"/>
<path fill-rule="evenodd" clip-rule="evenodd" d="M90.2197 12.7197C89.9268 13.0126 89.9268 13.4874 90.2197 13.7803L96.4697 20.0303C96.7626 20.3232 97.2374 20.3232 97.5303 20.0303L103.78 13.7803C104.073 13.4874 104.073 13.0126 103.78 12.7197C103.487 12.4268 103.013 12.4268 102.72 12.7197L97 18.4393L91.2803 12.7197C90.9874 12.4268 90.5126 12.4268 90.2197 12.7197Z" fill="#5B5B5B"/>
</svg>
