<svg width="50" height="60" viewBox="0 0 60 60" fill="none" xmlns="http://www.w3.org/2000/svg">
<rect width="60" height="60" rx="30" fill="#1B264F" fill-opacity="0.25"/>
<path d="M30.005 31.575C31.875 31.575 33.715 28.535 33.715 25.44C33.715 22.21 31.695 21.53 30.005 21.53C28.305 21.53 26.295 22.21 26.295 25.44C26.295 28.535 28.13 31.575 30.005 31.575ZM36.225 33.88C35.445 33.64 34.53 33.25 33.52 32.72C33.04 32.46 32.53 32.175 32.015 31.865C31.415 32.33 30.735 32.605 30.005 32.605C29.275 32.605 28.595 32.33 27.99 31.865C27.59 32.11 27.07 32.415 26.48 32.72C26.205 32.865 25.94 32.995 25.69 33.115C24.985 33.45 24.35 33.705 23.78 33.88C21.71 34.525 21.185 37.295 21.06 38.465H38.945C38.815 37.3 38.3 34.53 36.225 33.88ZM39.455 31.11C39.835 31.11 40.205 30.935 40.545 30.635C40.56 30.625 40.57 30.61 40.585 30.6C41.44 29.815 42.095 28.245 42.095 26.65C42.095 24.34 40.655 23.855 39.45 23.855C38.24 23.855 36.8 24.34 36.8 26.65C36.8 28.25 37.465 29.83 38.325 30.61C38.685 30.92 39.07 31.11 39.455 31.11ZM44.08 33.09C43.5 32.915 42.835 32.63 42.03 32.215C41.62 32 41.255 31.785 40.97 31.615C40.515 31.945 40 32.145 39.46 32.145C38.91 32.145 38.4 31.95 37.945 31.615C37.59 31.83 37.235 32.035 36.885 32.215C36.545 32.395 36.22 32.55 35.92 32.68C36.135 32.765 36.34 32.83 36.535 32.89C38.215 33.415 39.085 34.895 39.535 36.265H46C45.885 35.35 45.475 33.53 44.08 33.09ZM19.455 30.63C19.795 30.93 20.17 31.105 20.545 31.105C20.93 31.105 21.31 30.925 21.66 30.615C21.67 30.605 21.675 30.6 21.68 30.595C22.54 29.81 23.195 28.24 23.195 26.645C23.195 24.335 21.755 23.85 20.545 23.85C19.34 23.85 17.9 24.335 17.9 26.645C17.9 28.235 18.55 29.805 19.405 30.59C19.425 30.605 19.44 30.615 19.455 30.63ZM23.475 32.895C23.67 32.84 23.88 32.765 24.09 32.685C23.79 32.55 23.47 32.395 23.12 32.22C22.71 32.01 22.35 31.795 22.06 31.62C21.605 31.95 21.095 32.15 20.55 32.15C20.005 32.15 19.495 31.955 19.04 31.62C18.77 31.785 18.405 32 17.975 32.22C17.185 32.635 16.51 32.92 15.935 33.095C14.53 33.53 14.12 35.35 14 36.27H20.47C20.92 34.895 21.79 33.415 23.475 32.895Z" fill="#1B264F"/>
</svg>
