<svg width="60" height="60" viewBox="0 0 60 60" fill="none" xmlns="http://www.w3.org/2000/svg">
<rect width="60" height="60" rx="30" fill="#34252F" fill-opacity="0.25"/>
<path d="M45.25 37.35C45.15 36.775 44.775 36.25 44.25 36C42.5 35.125 38.675 33.85 38.675 33.85V32.575L38.775 32.5C39.5 31.95 40.025 31.1 40.175 30.175L40.2 30.05H40.3C40.9 30.05 41.4 29.675 41.6 29.175C41.725 28.95 41.8 28.7 41.8 28.425C41.8 28.25 41.775 28.075 41.7 27.9C41.675 27.725 41.55 27.55 41.425 27.45L41.075 27.225L41.15 26.85C41.8 24.075 39.625 21.55 36.725 21.5C36.65 21.5 36.575 21.5 36.525 21.5C36.45 21.5 36.375 21.5 36.325 21.5C33.4 21.525 31.25 24.05 31.875 26.825L31.975 27.2L31.625 27.425C31.475 27.525 31.375 27.7 31.35 27.875C31.275 28.05 31.25 28.225 31.25 28.4C31.25 28.675 31.325 28.925 31.45 29.15C31.65 29.675 32.175 30.025 32.75 30.025H32.85L32.875 30.15C33.025 31.075 33.525 31.925 34.275 32.475L34.375 32.55V33.825C34.375 33.825 30.55 35.1 28.8 35.975C28.275 36.25 27.9 36.75 27.8 37.325C27.5 39.075 27.45 42.025 27.45 42.025H45.625C45.6 42.05 45.55 39.1 45.25 37.35Z" fill="#34252F"/>
<path d="M28.225 34.875C29.225 34.375 30.8 33.775 32.05 33.325C31.875 32.975 31.575 32.675 31.225 32.5C29.475 31.625 25.65 30.35 25.65 30.35V29.075L25.75 29C26.475 28.45 27 27.6 27.15 26.675L27.175 26.55H27.275C27.875 26.55 28.375 26.175 28.575 25.675C28.7 25.45 28.775 25.2 28.775 24.925C28.775 24.75 28.75 24.575 28.675 24.4C28.65 24.225 28.525 24.05 28.4 23.95L28.05 23.725L28.125 23.35C28.775 20.575 26.6 18.05 23.7 18C23.625 18 23.55 18 23.5 18C23.425 18 23.35 18 23.3 18C20.4 18.075 18.25 20.575 18.875 23.35L18.975 23.725L18.625 23.95C18.475 24.05 18.375 24.225 18.35 24.4C18.275 24.575 18.25 24.75 18.25 24.925C18.25 25.2 18.325 25.45 18.45 25.675C18.65 26.2 19.175 26.55 19.75 26.55H19.85L19.875 26.675C20 27.6 20.5 28.425 21.25 29L21.35 29.075V30.35C21.35 30.35 17.525 31.625 15.775 32.5C15.25 32.775 14.875 33.275 14.775 33.85C14.475 35.6 14.425 38.55 14.425 38.55H26.375C26.425 38.05 26.475 37.575 26.55 37.15C26.725 36.15 27.35 35.325 28.225 34.875Z" fill="#34252F"/>
</svg>
