<svg width="60" height="60" viewBox="0 0 60 60" fill="none" xmlns="http://www.w3.org/2000/svg">
<rect width="60" height="60" rx="30" fill="#C1292E" fill-opacity="0.25"/>
<path d="M45.5831 34.2688C44.8021 33.8069 43.8241 33.7322 42.9514 34.1193C42.9514 34.1193 42.948 34.1228 42.9344 34.1261C42.931 34.1295 42.9242 34.1295 42.9207 34.1329C42.9241 34.1329 42.9207 34.1329 42.9106 34.1363L42.9037 34.1397L42.9004 34.1431C42.8868 34.1464 42.8732 34.1532 42.8562 34.1601C42.5371 34.3026 41.2908 34.8562 37.053 36.7306V36.7238C36.1022 35.3757 34.4281 36.3706 32.1598 36.5676C28.6419 34.7645 25.3209 32.9987 21.6773 33.1107V40.3266H22.2817L29.8474 43.3149C31.0834 43.8038 32.4858 43.6782 33.62 42.9821L45.5898 35.5965C46.0822 35.2909 46.0856 34.5642 45.5831 34.2688ZM20.2906 32.2222H19.6833V31.7679C19.6833 31.4129 19.3956 31.1251 19.0405 31.1251H14.6832C14.3282 31.1251 14.0404 31.4129 14.0404 31.7679V42.0643C14.0404 42.4194 14.3282 42.7071 14.6832 42.7071H19.0405C19.3956 42.7071 19.6833 42.4194 19.6833 42.0643V41.6101H20.2906C20.682 41.6101 20.9993 41.2927 20.9993 40.9012V32.931C20.9994 32.5396 20.682 32.2222 20.2906 32.2222ZM17.7169 41.7212C17.2801 41.7212 16.9222 41.3634 16.9222 40.9265C16.9222 40.4897 17.2801 40.1318 17.7169 40.1318C18.1537 40.1318 18.5116 40.4897 18.5116 40.9265C18.5116 41.3634 18.1537 41.7212 17.7169 41.7212Z" fill="#C1292E"/>
<path d="M26.0934 26.2144L27.4512 26.3705C27.6142 27.0766 27.8925 27.7555 28.2795 28.3666L27.4241 29.4393C27.2001 29.7244 27.2272 30.1249 27.4784 30.3761L28.4152 31.313C28.6664 31.5642 29.067 31.5914 29.3521 31.3673L30.4248 30.5119C31.0358 30.8989 31.7147 31.1773 32.4208 31.3401L32.5769 32.698C32.6833 33.6379 33.917 33.232 34.5933 33.3226C34.9531 33.3226 35.2519 33.0578 35.2926 32.698L35.4487 31.3401C36.1549 31.1773 36.8337 30.8988 37.4447 30.5118L38.5174 31.3673C38.8026 31.5913 39.2031 31.5642 39.4543 31.313L40.3912 30.3761C40.6424 30.1249 40.6696 29.7244 40.4456 29.4392L39.5901 28.3665C39.9771 27.7555 40.2554 27.0766 40.4184 26.3706L41.7762 26.2144C42.136 26.1737 42.4007 25.875 42.4007 25.5151V24.198C42.4007 23.8382 42.136 23.5395 41.7762 23.4987L40.4184 23.3425C40.2554 22.6365 39.9771 21.9575 39.5901 21.3466L40.4456 20.2739C40.6696 19.9888 40.6424 19.5882 40.3912 19.337L39.4543 18.4001C39.2031 18.1489 38.8026 18.1218 38.5174 18.3458L37.4447 19.2012C36.8337 18.8142 36.1549 18.5359 35.4487 18.373L35.2926 17.0151C35.2519 16.6553 34.9532 16.3906 34.5933 16.3906H33.2762C32.9164 16.3906 32.6177 16.6554 32.5769 17.0151L32.4208 18.373C31.7147 18.5359 31.0358 18.8142 30.4248 19.2012L29.3521 18.3458C29.067 18.1218 28.6664 18.149 28.4152 18.4002L27.4784 19.3371C27.2272 19.5883 27.2001 19.9888 27.4241 20.2739L28.2795 21.3466C27.8925 21.9576 27.6142 22.6365 27.4512 23.3426L26.0934 23.4988C25.7336 23.5395 25.4689 23.8383 25.4689 24.1981V25.5152C25.4689 25.875 25.7336 26.1737 26.0934 26.2144ZM31.7501 22.6787C32.9564 21.4724 34.9076 21.4724 36.1139 22.6787C37.3121 23.8769 37.3121 25.8361 36.1139 27.0344C34.9076 28.2407 32.9564 28.2407 31.7501 27.0344C30.5437 25.8362 30.5437 23.8769 31.7501 22.6787Z" fill="#C1292E"/>
</svg>
