<svg width="60" height="60" viewBox="0 0 60 60" fill="none" xmlns="http://www.w3.org/2000/svg">
<rect width="60" height="60" rx="30" fill="#F7B32B" fill-opacity="0.25"/>
<g clip-path="url(#clip0_3_260)">
<path d="M28.6667 26.6667H26C25.8232 26.6667 25.6536 26.7369 25.5286 26.8619C25.4036 26.9869 25.3333 27.1565 25.3333 27.3333C25.3333 27.5101 25.4036 27.6797 25.5286 27.8047C25.6536 27.9298 25.8232 28 26 28H28V29.3333H26C25.8232 29.3333 25.6536 29.4036 25.5286 29.5286C25.4036 29.6536 25.3333 29.8232 25.3333 30V32.6667C25.3333 32.8435 25.4036 33.013 25.5286 33.1381C25.6536 33.2631 25.8232 33.3333 26 33.3333H28.6667C28.8435 33.3333 29.013 33.2631 29.1381 33.1381C29.2631 33.013 29.3333 32.8435 29.3333 32.6667C29.3333 32.4898 29.2631 32.3203 29.1381 32.1953C29.013 32.0702 28.8435 32 28.6667 32H26.6667V30.6667H28.6667C28.8435 30.6667 29.013 30.5964 29.1381 30.4714C29.2631 30.3464 29.3333 30.1768 29.3333 30V27.3333C29.3333 27.1565 29.2631 26.9869 29.1381 26.8619C29.013 26.7369 28.8435 26.6667 28.6667 26.6667ZM33.3333 27.3333V29.3333H32V27.3333C32 27.1565 31.9298 26.9869 31.8047 26.8619C31.6797 26.7369 31.5101 26.6667 31.3333 26.6667C31.1565 26.6667 30.987 26.7369 30.8619 26.8619C30.7369 26.9869 30.6667 27.1565 30.6667 27.3333V30C30.6667 30.1768 30.7369 30.3464 30.8619 30.4714C30.987 30.5964 31.1565 30.6667 31.3333 30.6667H33.3333V32.6667C33.3333 32.8435 33.4036 33.013 33.5286 33.1381C33.6536 33.2631 33.8232 33.3333 34 33.3333C34.1768 33.3333 34.3464 33.2631 34.4714 33.1381C34.5964 33.013 34.6667 32.8435 34.6667 32.6667V27.3333C34.6667 27.1565 34.5964 26.9869 34.4714 26.8619C34.3464 26.7369 34.1768 26.6667 34 26.6667C33.8232 26.6667 33.6536 26.7369 33.5286 26.8619C33.4036 26.9869 33.3333 27.1565 33.3333 27.3333Z" fill="#F7B32B"/>
<path d="M30 20.6667C28.154 20.6667 26.3495 21.214 24.8147 22.2396C23.2798 23.2652 22.0835 24.7228 21.3771 26.4283C20.6707 28.1337 20.4859 30.0103 20.846 31.8208C21.2061 33.6313 22.095 35.2944 23.4003 36.5997C24.7056 37.9049 26.3687 38.7939 28.1792 39.154C29.9896 39.5141 31.8663 39.3293 33.5717 38.6229C35.2772 37.9164 36.7348 36.7202 37.7604 35.1853C38.7859 33.6505 39.3333 31.8459 39.3333 30C39.3333 27.5246 38.35 25.1507 36.5997 23.4003C34.8493 21.65 32.4754 20.6667 30 20.6667ZM30 38C28.4178 38 26.871 37.5308 25.5554 36.6517C24.2398 35.7727 23.2145 34.5233 22.609 33.0615C22.0035 31.5996 21.845 29.9911 22.1537 28.4393C22.4624 26.8874 23.2243 25.462 24.3431 24.3431C25.462 23.2243 26.8874 22.4624 28.4393 22.1537C29.9911 21.845 31.5997 22.0035 33.0615 22.609C34.5233 23.2145 35.7727 24.2398 36.6518 25.5554C37.5308 26.871 38 28.4177 38 30C38 32.1217 37.1571 34.1566 35.6569 35.6568C34.1566 37.1571 32.1217 38 30 38Z" fill="#F7B32B"/>
<path d="M44.5467 27.08C43.38 26.7467 42.28 26.5867 41.6867 25.14C41.0933 23.6933 41.84 22.7 42.3533 21.7733C42.5623 21.3913 42.6409 20.9515 42.5771 20.5207C42.5133 20.09 42.3107 19.6918 42 19.3867L40.6133 18C40.3058 17.6925 39.9065 17.4937 39.4758 17.4335C39.0452 17.3734 38.6066 17.4552 38.2267 17.6667L37.2933 18.1867C36.9219 18.3927 36.5088 18.5122 36.0847 18.5362C35.6607 18.5602 35.2367 18.4881 34.8444 18.3252C34.4522 18.1624 34.1017 17.9131 33.8193 17.5959C33.5368 17.2787 33.3297 16.9018 33.2133 16.4933L32.92 15.4733C32.8046 15.0506 32.5536 14.6775 32.2055 14.4113C31.8574 14.1451 31.4315 14.0006 30.9933 14H28.9933C28.5577 13.9994 28.1338 14.141 27.7861 14.4033C27.4383 14.6656 27.1857 15.0343 27.0667 15.4533C26.76 16.5267 26.5867 17.7067 25.14 18.3067C23.6933 18.9067 22.6733 18.1533 21.76 17.64C21.3787 17.4351 20.9413 17.3594 20.5133 17.4243C20.0854 17.4893 19.69 17.6913 19.3867 18L18 19.3867C17.6915 19.6934 17.4913 20.0923 17.43 20.523C17.3686 20.9537 17.4494 21.3927 17.66 21.7733L18.18 22.7067C18.3861 23.0776 18.5058 23.4903 18.5302 23.914C18.5547 24.3377 18.4831 24.7614 18.321 25.1536C18.1589 25.5458 17.9103 25.8963 17.5939 26.1791C17.2774 26.4618 16.9012 26.6695 16.4933 26.7867L15.4667 27.08C15.0452 27.1966 14.6735 27.4482 14.4086 27.7962C14.1437 28.1441 14.0002 28.5693 14 29.0067V31.0067C13.9994 31.4423 14.141 31.8662 14.4033 32.2139C14.6656 32.5617 15.0343 32.8143 15.4533 32.9333C16.6133 33.26 17.72 33.4267 18.3133 34.8733C18.9067 36.32 18.1667 37.3133 17.6467 38.24C17.4409 38.6206 17.3642 39.0576 17.4279 39.4855C17.4916 39.9135 17.6923 40.3092 18 40.6133L19.3867 42C19.6934 42.3085 20.0923 42.5087 20.523 42.57C20.9537 42.6314 21.3927 42.5506 21.7733 42.34L22.72 41.8133C23.09 41.6097 23.5011 41.4917 23.9228 41.4682C24.3445 41.4447 24.7661 41.5162 25.1565 41.6775C25.5468 41.8388 25.896 42.0857 26.1781 42.4C26.4603 42.7142 26.6683 43.0879 26.7867 43.4933L27.08 44.5333C27.1966 44.9548 27.4482 45.3265 27.7962 45.5914C28.1441 45.8563 28.5693 45.9998 29.0067 46H31.0067C31.4423 46.0006 31.8662 45.859 32.2139 45.5967C32.5617 45.3344 32.8143 44.9657 32.9333 44.5467C33.26 43.3867 33.4267 42.28 34.8733 41.6867C36.32 41.0933 37.3 41.8333 38.24 42.3533C38.6206 42.5591 39.0576 42.6358 39.4855 42.5721C39.9135 42.5084 40.3092 42.3077 40.6133 42L42 40.6133C42.3075 40.3058 42.5063 39.9065 42.5665 39.4758C42.6266 39.0452 42.5448 38.6066 42.3333 38.2267L41.8067 37.28C41.6042 36.9107 41.487 36.5007 41.4637 36.0801C41.4405 35.6596 41.5117 35.2392 41.6722 34.8497C41.8327 34.4603 42.0784 34.1118 42.3912 33.8298C42.7041 33.5478 43.0761 33.3394 43.48 33.22L44.5333 32.92C44.9548 32.8034 45.3265 32.5518 45.5914 32.2038C45.8563 31.8559 45.9998 31.4307 46 30.9933V28.9933C45.9977 28.56 45.8548 28.1392 45.5927 27.7941C45.3306 27.449 44.9635 27.1984 44.5467 27.08ZM44.6667 30.9933C44.6667 31.5733 44.24 31.62 43.1333 31.9333C42.5348 32.1074 41.9832 32.414 41.5193 32.8304C41.0554 33.2468 40.6912 33.7622 40.4536 34.3385C40.216 34.9148 40.1112 35.5371 40.147 36.1594C40.1827 36.7817 40.358 37.388 40.66 37.9333C41.1867 38.88 41.5 39.2667 41.0733 39.6733C39.6467 41.1 39.4333 41.5067 38.8733 41.1933C37.7333 40.5267 36.3667 39.6267 34.32 40.4733C31.2333 41.7467 32.32 44.6733 30.9867 44.6733C28.22 44.6733 28.58 44.9733 28.06 43.1467C27.8076 42.2812 27.2812 41.5209 26.56 40.98C25.8388 40.4391 24.9615 40.1467 24.06 40.1467C22.8333 40.1467 22.1467 40.62 21.1133 41.1933C20.5533 41.5 20.34 41.1 18.9133 39.6733C18.4733 39.2333 18.8333 38.8267 19.3267 37.9333C19.6285 37.3876 19.8036 36.7809 19.8389 36.1582C19.8743 35.5355 19.7689 34.9129 19.5307 34.3365C19.2924 33.7601 18.9274 33.2448 18.4628 32.8288C17.9981 32.4127 17.4458 32.1067 16.8467 31.9333C15.84 31.64 15.3333 31.6067 15.3333 30.9933C15.3333 28.9267 15.2067 28.54 15.82 28.3667C17.1533 27.98 18.7133 27.6667 19.54 25.6667C20.3667 23.6667 19.4933 22.3333 18.8133 21.1267C18.5067 20.5667 18.9067 20.3467 20.3333 18.9267C20.76 18.5 21.1333 18.82 22.0533 19.3333C22.6 19.6325 23.2069 19.8053 23.8292 19.8389C24.4515 19.8725 25.0734 19.7661 25.6491 19.5275C26.2248 19.2889 26.7397 18.9242 27.1558 18.4602C27.5719 17.9963 27.8786 17.4449 28.0533 16.8467C28.38 15.76 28.4 15.3333 29.0067 15.3333C31.0467 15.3333 31.46 15.2067 31.6333 15.82C31.9933 17.0667 32.3 18.7 34.3333 19.54C37.44 20.8267 38.74 18 39.6667 18.9267C41.6067 20.86 41.5867 20.4067 40.66 22.0733C40.358 22.6186 40.1827 23.2249 40.147 23.8472C40.1112 24.4695 40.216 25.0919 40.4536 25.6682C40.6912 26.2445 41.0554 26.7599 41.5193 27.1763C41.9832 27.5926 42.5348 27.8992 43.1333 28.0733C44.9733 28.5867 44.6667 28.2533 44.6667 30.9933Z" fill="#F7B32B"/>
</g>
<defs>
<clipPath id="clip0_3_260">
<rect width="32" height="32" fill="white" transform="translate(14 14)"/>
</clipPath>
</defs>
</svg>
