<svg width="84" height="16" viewBox="0 0 84 16" fill="none" xmlns="http://www.w3.org/2000/svg">
<path d="M8.95925 9.16009C8.82975 9.28559 8.77025 9.46709 8.79975 9.6451L9.24426 12.1051C9.28176 12.3136 9.19376 12.5246 9.01925 12.6451C8.84825 12.7701 8.62075 12.7851 8.43425 12.6851L6.21975 11.5301C6.14275 11.4891 6.05725 11.4671 5.96975 11.4646H5.83425C5.78725 11.4716 5.74125 11.4866 5.69925 11.5096L3.48425 12.6701C3.37475 12.7251 3.25075 12.7446 3.12925 12.7251C2.83325 12.6691 2.63575 12.3871 2.68425 12.0896L3.12925 9.6296C3.15875 9.4501 3.09925 9.26759 2.96975 9.14009L1.16425 7.39009C1.01325 7.24359 0.960755 7.02359 1.02975 6.82509C1.09675 6.62709 1.26775 6.48259 1.47425 6.45009L3.95925 6.08959C4.14825 6.07009 4.31425 5.95509 4.39925 5.78509L5.49425 3.54009C5.52025 3.49009 5.55375 3.44409 5.59425 3.40509L5.63925 3.37009C5.66275 3.34409 5.68975 3.32259 5.71975 3.30509L5.77425 3.28509L5.85925 3.25009H6.06975C6.25775 3.26959 6.42325 3.38209 6.50975 3.55009L7.61925 5.78509C7.69925 5.94859 7.85475 6.06209 8.03426 6.08959L10.5193 6.45009C10.7293 6.48009 10.9048 6.62509 10.9743 6.82509C11.0398 7.02559 10.9833 7.24559 10.8293 7.39009L8.95925 9.16009Z" fill="#EBA53B"/>
<path d="M20.9593 9.16009C20.8298 9.28559 20.7703 9.46709 20.7998 9.6451L21.2443 12.1051C21.2818 12.3136 21.1938 12.5246 21.0193 12.6451C20.8483 12.7701 20.6208 12.7851 20.4343 12.6851L18.2198 11.5301C18.1428 11.4891 18.0573 11.4671 17.9698 11.4646H17.8343C17.7873 11.4716 17.7413 11.4866 17.6993 11.5096L15.4843 12.6701C15.3748 12.7251 15.2508 12.7446 15.1293 12.7251C14.8333 12.6691 14.6358 12.3871 14.6843 12.0896L15.1293 9.6296C15.1588 9.4501 15.0993 9.26759 14.9698 9.14009L13.1643 7.39009C13.0133 7.24359 12.9608 7.02359 13.0298 6.82509C13.0968 6.62709 13.2678 6.48259 13.4743 6.45009L15.9593 6.08959C16.1483 6.07009 16.3143 5.95509 16.3993 5.78509L17.4943 3.54009C17.5203 3.49009 17.5538 3.44409 17.5943 3.40509L17.6393 3.37009C17.6628 3.34409 17.6898 3.32259 17.7198 3.30509L17.7743 3.28509L17.8593 3.25009H18.0698C18.2578 3.26959 18.4233 3.38209 18.5098 3.55009L19.6193 5.78509C19.6993 5.94859 19.8548 6.06209 20.0343 6.08959L22.5193 6.45009C22.7293 6.48009 22.9048 6.62509 22.9743 6.82509C23.0398 7.02559 22.9833 7.24559 22.8293 7.39009L20.9593 9.16009Z" fill="#EBA53B"/>
<path d="M32.9593 9.16009C32.8298 9.28559 32.7703 9.46709 32.7998 9.6451L33.2443 12.1051C33.2818 12.3136 33.1938 12.5246 33.0193 12.6451C32.8483 12.7701 32.6208 12.7851 32.4343 12.6851L30.2198 11.5301C30.1428 11.4891 30.0573 11.4671 29.9698 11.4646H29.8343C29.7873 11.4716 29.7413 11.4866 29.6993 11.5096L27.4843 12.6701C27.3748 12.7251 27.2508 12.7446 27.1293 12.7251C26.8333 12.6691 26.6358 12.3871 26.6843 12.0896L27.1293 9.6296C27.1588 9.4501 27.0993 9.26759 26.9698 9.14009L25.1643 7.39009C25.0133 7.24359 24.9608 7.02359 25.0298 6.82509C25.0968 6.62709 25.2678 6.48259 25.4743 6.45009L27.9593 6.08959C28.1483 6.07009 28.3143 5.95509 28.3993 5.78509L29.4943 3.54009C29.5203 3.49009 29.5538 3.44409 29.5943 3.40509L29.6393 3.37009C29.6628 3.34409 29.6898 3.32259 29.7198 3.30509L29.7743 3.28509L29.8593 3.25009H30.0698C30.2578 3.26959 30.4233 3.38209 30.5098 3.55009L31.6193 5.78509C31.6993 5.94859 31.8548 6.06209 32.0343 6.08959L34.5193 6.45009C34.7293 6.48009 34.9048 6.62509 34.9743 6.82509C35.0398 7.02559 34.9833 7.24559 34.8293 7.39009L32.9593 9.16009Z" fill="#EBA53B"/>
<path d="M44.9593 9.16009C44.8298 9.28559 44.7703 9.46709 44.7998 9.6451L45.2443 12.1051C45.2818 12.3136 45.1938 12.5246 45.0193 12.6451C44.8483 12.7701 44.6208 12.7851 44.4343 12.6851L42.2198 11.5301C42.1428 11.4891 42.0573 11.4671 41.9698 11.4646H41.8343C41.7873 11.4716 41.7413 11.4866 41.6993 11.5096L39.4843 12.6701C39.3748 12.7251 39.2508 12.7446 39.1293 12.7251C38.8333 12.6691 38.6358 12.3871 38.6843 12.0896L39.1293 9.6296C39.1588 9.4501 39.0993 9.26759 38.9698 9.14009L37.1643 7.39009C37.0133 7.24359 36.9608 7.02359 37.0298 6.82509C37.0968 6.62709 37.2678 6.48259 37.4743 6.45009L39.9593 6.08959C40.1483 6.07009 40.3143 5.95509 40.3993 5.78509L41.4943 3.54009C41.5203 3.49009 41.5538 3.44409 41.5943 3.40509L41.6393 3.37009C41.6628 3.34409 41.6898 3.32259 41.7198 3.30509L41.7743 3.28509L41.8593 3.25009H42.0698C42.2578 3.26959 42.4233 3.38209 42.5098 3.55009L43.6193 5.78509C43.6993 5.94859 43.8548 6.06209 44.0343 6.08959L46.5193 6.45009C46.7293 6.48009 46.9048 6.62509 46.9743 6.82509C47.0398 7.02559 46.9833 7.24559 46.8293 7.39009L44.9593 9.16009Z" fill="#EBA53B"/>
<path d="M56.9593 9.16009C56.8298 9.28559 56.7703 9.46709 56.7998 9.6451L57.2443 12.1051C57.2818 12.3136 57.1938 12.5246 57.0193 12.6451C56.8483 12.7701 56.6208 12.7851 56.4343 12.6851L54.2198 11.5301C54.1428 11.4891 54.0573 11.4671 53.9698 11.4646H53.8343C53.7873 11.4716 53.7413 11.4866 53.6993 11.5096L51.4843 12.6701C51.3748 12.7251 51.2508 12.7446 51.1293 12.7251C50.8333 12.6691 50.6358 12.3871 50.6843 12.0896L51.1293 9.6296C51.1588 9.4501 51.0993 9.26759 50.9698 9.14009L49.1643 7.39009C49.0133 7.24359 48.9608 7.02359 49.0298 6.82509C49.0968 6.62709 49.2678 6.48259 49.4743 6.45009L51.9593 6.08959C52.1483 6.07009 52.3143 5.95509 52.3993 5.78509L53.4943 3.54009C53.5203 3.49009 53.5538 3.44409 53.5943 3.40509L53.6393 3.37009C53.6628 3.34409 53.6898 3.32259 53.7198 3.30509L53.7743 3.28509L53.8593 3.25009H54.0698C54.2578 3.26959 54.4233 3.38209 54.5098 3.55009L55.6193 5.78509C55.6993 5.94859 55.8548 6.06209 56.0343 6.08959L58.5193 6.45009C58.7293 6.48009 58.9048 6.62509 58.9743 6.82509C59.0398 7.02559 58.9833 7.24559 58.8293 7.39009L56.9593 9.16009Z" fill="#E6E6E6"/>
<path d="M68.5 13V11.494H64.6V10.306L67.408 4.36H68.842L66.034 10.306H68.5V7.966H69.772V10.306H70.63V11.494H69.772V13H68.5ZM74.3545 4.36H75.6205L73.3165 13H72.0505L74.3545 4.36ZM79.8481 13.18C79.4041 13.18 78.9901 13.09 78.6061 12.91C78.2261 12.726 77.9001 12.474 77.6281 12.154C77.3561 11.83 77.1621 11.458 77.0461 11.038L78.2521 10.714C78.3201 10.97 78.4361 11.192 78.6001 11.38C78.7681 11.568 78.9641 11.714 79.1881 11.818C79.4121 11.918 79.6441 11.968 79.8841 11.968C80.2001 11.968 80.4861 11.892 80.7421 11.74C81.0021 11.588 81.2061 11.384 81.3541 11.128C81.5061 10.872 81.5821 10.59 81.5821 10.282C81.5821 9.966 81.5041 9.68 81.3481 9.424C81.1961 9.168 80.9901 8.966 80.7301 8.818C80.4741 8.666 80.1921 8.59 79.8841 8.59C79.5321 8.59 79.2341 8.66 78.9901 8.8C78.7461 8.94 78.5561 9.102 78.4201 9.286L77.3281 8.902L77.5921 4.36H82.2541V5.542H78.2341L78.7441 5.068L78.5341 8.47L78.2881 8.152C78.5161 7.924 78.7881 7.75 79.1041 7.63C79.4201 7.51 79.7341 7.45 80.0461 7.45C80.5821 7.45 81.0601 7.574 81.4801 7.822C81.9041 8.07 82.2381 8.408 82.4821 8.836C82.7261 9.26 82.8481 9.742 82.8481 10.282C82.8481 10.818 82.7101 11.306 82.4341 11.746C82.1581 12.182 81.7921 12.53 81.3361 12.79C80.8801 13.05 80.3841 13.18 79.8481 13.18Z" fill="#276E59"/>
</svg>
